<svg width="314" height="314" viewBox="0 0 314 314" fill="none" xmlns="http://www.w3.org/2000/svg">
<circle cx="157" cy="157" r="157" fill="#B93939"/>
<path d="M122.839 235.66C115.637 235.66 109.221 233.88 103.591 230.32C97.9616 226.76 93.5325 221.627 90.3038 214.921C87.1579 208.133 85.585 200.061 85.585 190.706C85.585 181.351 87.1579 173.321 90.3038 166.615C93.5325 159.826 97.9616 154.652 103.591 151.092C109.221 147.533 115.637 145.753 122.839 145.753C130.042 145.753 136.458 147.533 142.087 151.092C147.717 154.652 152.104 159.826 155.25 166.615C158.479 173.321 160.093 181.351 160.093 190.706C160.093 200.061 158.479 208.133 155.25 214.921C152.104 221.627 147.717 226.76 142.087 230.32C136.458 233.88 130.042 235.66 122.839 235.66ZM122.839 218.647C128.138 218.647 132.277 216.37 135.257 211.817C138.32 207.264 139.852 200.227 139.852 190.706C139.852 181.186 138.32 174.149 135.257 169.595C132.277 165.042 128.138 162.765 122.839 162.765C117.624 162.765 113.484 165.042 110.421 169.595C107.441 174.149 105.951 181.186 105.951 190.706C105.951 200.227 107.441 207.264 110.421 211.817C113.484 216.37 117.624 218.647 122.839 218.647Z" fill="white"/>
<path d="M181.071 208.464C176.973 208.464 173.62 207.08 171.012 204.313C168.457 201.492 167.18 197.74 167.18 193.057C167.18 188.373 168.457 184.648 171.012 181.88C173.62 179.06 176.973 177.649 181.071 177.649C185.169 177.649 188.495 179.06 191.05 181.88C193.604 184.648 194.881 188.373 194.881 193.057C194.881 197.74 193.604 201.492 191.05 204.313C188.495 207.08 185.169 208.464 181.071 208.464ZM214.36 178.288H223.86L185.701 234.169H176.201L214.36 178.288ZM181.071 201.918C182.88 201.918 184.291 201.173 185.302 199.683C186.366 198.192 186.898 195.984 186.898 193.057C186.898 190.13 186.366 187.921 185.302 186.431C184.291 184.941 182.88 184.195 181.071 184.195C179.314 184.195 177.904 184.967 176.84 186.511C175.775 188.001 175.243 190.183 175.243 193.057C175.243 195.931 175.775 198.139 176.84 199.683C177.904 201.173 179.314 201.918 181.071 201.918ZM218.99 234.808C216.329 234.808 213.934 234.196 211.805 232.972C209.73 231.695 208.107 229.885 206.936 227.543C205.765 225.202 205.18 222.488 205.18 219.401C205.18 216.314 205.765 213.6 206.936 211.258C208.107 208.916 209.73 207.133 211.805 205.909C213.934 204.632 216.329 203.993 218.99 203.993C223.088 203.993 226.414 205.404 228.969 208.224C231.577 210.992 232.881 214.717 232.881 219.401C232.881 224.084 231.577 227.836 228.969 230.657C226.414 233.424 223.088 234.808 218.99 234.808ZM218.99 228.262C220.8 228.262 222.21 227.517 223.221 226.027C224.286 224.483 224.818 222.275 224.818 219.401C224.818 216.527 224.286 214.345 223.221 212.855C222.21 211.311 220.8 210.54 218.99 210.54C217.234 210.54 215.824 211.285 214.759 212.775C213.695 214.265 213.163 216.474 213.163 219.401C213.163 222.328 213.695 224.536 214.759 226.027C215.824 227.517 217.234 228.262 218.99 228.262Z" fill="white"/>
<path d="M137.731 61.026H155.773V65.1453H142.872V69.7435H149.067C151.771 69.7435 153.825 70.3076 155.23 71.4359C156.656 72.5642 157.369 74.1927 157.369 76.3215C157.369 78.5568 156.582 80.2918 155.006 81.5265C153.431 82.7612 151.207 83.3786 148.333 83.3786H137.731V61.026ZM148.045 79.5467C149.365 79.5467 150.376 79.2912 151.079 78.7803C151.781 78.2481 152.133 77.4817 152.133 76.4812C152.133 74.5227 150.77 73.5434 148.045 73.5434H142.872V79.5467H148.045Z" fill="white"/>
<path d="M177.623 74.8527C177.623 74.9165 177.591 75.3636 177.528 76.1938H164.531C164.765 77.2582 165.319 78.0991 166.192 78.7165C167.065 79.3338 168.15 79.6425 169.449 79.6425C170.343 79.6425 171.131 79.5148 171.812 79.2593C172.514 78.9826 173.164 78.5568 173.76 77.982L176.41 80.8559C174.792 82.708 172.429 83.634 169.321 83.634C167.384 83.634 165.67 83.2615 164.18 82.5164C162.69 81.75 161.54 80.6962 160.731 79.3551C159.922 78.0139 159.518 76.4918 159.518 74.7888C159.518 73.107 159.912 71.5956 160.699 70.2544C161.508 68.892 162.605 67.8382 163.988 67.0931C165.393 66.3268 166.958 65.9436 168.682 65.9436C170.364 65.9436 171.886 66.3055 173.249 67.0293C174.611 67.7531 175.676 68.7962 176.442 70.1586C177.23 71.4998 177.623 73.0644 177.623 74.8527ZM168.714 69.7116C167.586 69.7116 166.639 70.0309 165.872 70.6695C165.106 71.3082 164.638 72.181 164.467 73.288H172.929C172.759 72.2023 172.291 71.3401 171.524 70.7015C170.758 70.0415 169.821 69.7116 168.714 69.7116Z" fill="white"/>
<path d="M82.0338 115.893H79.4472V122.407H74.4658V105.227H79.4472V111.901H82.1295L86.7917 105.227H92.0924L86.0891 113.466L92.5075 122.407H86.632L82.0338 115.893Z" fill="white"/>
<path d="M102.47 122.662C100.661 122.662 99.0323 122.29 97.5847 121.545C96.1584 120.778 95.0408 119.725 94.2319 118.383C93.4229 117.042 93.0184 115.52 93.0184 113.817C93.0184 112.114 93.4229 110.592 94.2319 109.251C95.0408 107.91 96.1584 106.866 97.5847 106.121C99.0323 105.355 100.661 104.972 102.47 104.972C104.28 104.972 105.898 105.355 107.324 106.121C108.75 106.866 109.868 107.91 110.677 109.251C111.486 110.592 111.89 112.114 111.89 113.817C111.89 115.52 111.486 117.042 110.677 118.383C109.868 119.725 108.75 120.778 107.324 121.545C105.898 122.29 104.28 122.662 102.47 122.662ZM102.47 118.575C103.748 118.575 104.791 118.149 105.6 117.298C106.43 116.425 106.845 115.265 106.845 113.817C106.845 112.369 106.43 111.22 105.6 110.368C104.791 109.496 103.748 109.059 102.47 109.059C101.193 109.059 100.139 109.496 99.3091 110.368C98.4788 111.22 98.0637 112.369 98.0637 113.817C98.0637 115.265 98.4788 116.425 99.3091 117.298C100.139 118.149 101.193 118.575 102.47 118.575Z" fill="white"/>
<path d="M132.081 122.407V112.125L126.94 120.746H124.832L119.819 112.093V122.407H115.317V105.227H120.522L126.014 115.158L131.857 105.227H136.52L136.583 122.407H132.081Z" fill="white"/>
<path d="M141.355 105.227H146.305V115.446L154.671 105.227H159.237V122.407H154.288V112.189L145.953 122.407H141.355V105.227Z" fill="white"/>
<path d="M172.2 122.662C170.37 122.662 168.72 122.29 167.251 121.545C165.803 120.778 164.664 119.725 163.834 118.383C163.025 117.042 162.621 115.52 162.621 113.817C162.621 112.114 163.025 110.592 163.834 109.251C164.664 107.91 165.803 106.866 167.251 106.121C168.72 105.355 170.37 104.972 172.2 104.972C174.01 104.972 175.585 105.355 176.926 106.121C178.289 106.866 179.279 107.942 179.896 109.347L176.032 111.422C175.138 109.847 173.85 109.059 172.168 109.059C170.87 109.059 169.795 109.485 168.943 110.336C168.092 111.188 167.666 112.348 167.666 113.817C167.666 115.286 168.092 116.446 168.943 117.298C169.795 118.149 170.87 118.575 172.168 118.575C173.871 118.575 175.159 117.787 176.032 116.212L179.896 118.319C179.279 119.682 178.289 120.746 176.926 121.513C175.585 122.279 174.01 122.662 172.2 122.662Z" fill="white"/>
<path d="M190.879 122.662C189.049 122.662 187.399 122.29 185.93 121.545C184.482 120.778 183.343 119.725 182.513 118.383C181.704 117.042 181.3 115.52 181.3 113.817C181.3 112.114 181.704 110.592 182.513 109.251C183.343 107.91 184.482 106.866 185.93 106.121C187.399 105.355 189.049 104.972 190.879 104.972C192.689 104.972 194.264 105.355 195.605 106.121C196.968 106.866 197.958 107.942 198.575 109.347L194.711 111.422C193.817 109.847 192.529 109.059 190.847 109.059C189.549 109.059 188.474 109.485 187.622 110.336C186.771 111.188 186.345 112.348 186.345 113.817C186.345 115.286 186.771 116.446 187.622 117.298C188.474 118.149 189.549 118.575 190.847 118.575C192.551 118.575 193.838 117.787 194.711 116.212L198.575 118.319C197.958 119.682 196.968 120.746 195.605 121.513C194.264 122.279 192.689 122.662 190.879 122.662Z" fill="white"/>
<path d="M201.602 105.227H206.552V115.446L214.918 105.227H219.484V122.407H214.535V112.189L206.2 122.407H201.602V105.227Z" fill="white"/>
<path d="M223.464 105.227H228.413V115.446L236.779 105.227H241.346V122.407H236.396V112.189L228.062 122.407H223.464V105.227Z" fill="white"/>
<path d="M193.751 74.4765C194.807 74.7938 195.622 75.2803 196.194 75.936C196.788 76.5917 197.085 77.3744 197.085 78.2839C197.085 79.3627 196.7 80.3145 195.93 81.1394C195.16 81.9432 194.103 82.5672 192.761 83.0114C191.419 83.4556 189.9 83.6777 188.206 83.6777C186.819 83.6777 185.455 83.5402 184.113 83.2652C182.77 82.9902 181.527 82.5778 180.383 82.0278L181.769 78.5695C183.64 79.4367 185.708 79.8703 187.975 79.8703C189.185 79.8703 190.131 79.7011 190.813 79.3627C191.518 79.0031 191.87 78.506 191.87 77.8714C191.87 77.3215 191.628 76.909 191.144 76.634C190.659 76.3379 189.955 76.1899 189.031 76.1899H185.4V73.1122H188.569C189.471 73.1122 190.164 72.9747 190.648 72.6998C191.133 72.4248 191.375 72.0229 191.375 71.4941C191.375 70.9441 191.067 70.5211 190.45 70.225C189.856 69.9288 188.998 69.7808 187.876 69.7808C186.159 69.7808 184.289 70.1721 182.264 70.9547L181.01 67.5281C183.475 66.4916 185.873 65.9734 188.206 65.9734C189.812 65.9734 191.243 66.1638 192.497 66.5445C193.773 66.9253 194.774 67.4858 195.501 68.2261C196.227 68.9453 196.59 69.7914 196.59 70.7644C196.59 71.5681 196.337 72.2979 195.831 72.9536C195.325 73.5882 194.631 74.0958 193.751 74.4765Z" fill="white"/>
</svg>
