<svg width="270" height="60" viewBox="0 0 270 60" fill="none" xmlns="http://www.w3.org/2000/svg">
<path d="M78.0011 29.1104C78.0011 30.8824 77.3683 32.4012 76.2292 33.6669C75.0901 34.9325 73.3181 35.4388 71.5462 35.4388C69.7742 35.4388 68.2554 34.806 67.1163 33.6669C65.9772 32.4012 65.4709 30.8824 65.4709 29.1104C65.4709 27.3385 66.1038 25.8197 67.1163 24.6805C68.2554 23.4149 69.7742 22.782 71.5462 22.782C73.3181 22.782 75.0901 23.4149 76.2292 24.6805C77.3683 25.8197 78.0011 27.2119 78.0011 29.1104ZM77.8746 20.6304C75.976 18.985 73.6978 18.2256 71.0399 18.2256C68.1288 18.2256 65.2178 19.2381 63.3193 21.2632C61.2942 23.2883 60.4082 25.9462 60.4082 28.9838C60.4082 32.148 61.4207 34.806 63.3193 36.831C65.2178 38.9827 68.0023 39.9952 71.0399 39.9952C73.8244 39.9952 75.7229 39.2358 77.8746 37.5905V39.489H82.5576V18.6053H77.8746V20.6304Z" fill="black"/>
<path fill-rule="evenodd" clip-rule="evenodd" d="M87.1141 39.7413C89.6455 39.7413 91.544 38.7288 92.8097 36.5771C93.316 35.8177 93.8222 34.552 94.0754 33.7926C94.4551 32.9067 94.7082 31.1347 94.9613 30.3753C95.0879 29.9956 95.2145 29.3628 95.341 28.4768L95.5942 26.7048C95.5942 26.3251 95.7207 25.6923 95.8473 24.6797L96.1004 22.9078H100.783V39.235H105.72V18.6045H91.7971L91.544 20.2499C91.1643 24.1735 90.658 27.3377 90.2783 29.4893C89.8986 31.641 89.3924 33.2864 88.5064 34.4255C87.747 35.438 86.7344 35.9443 85.4688 35.9443L85.7219 39.6147C86.3547 39.7413 86.7344 39.7413 87.1141 39.7413Z" fill="black"/>
<path d="M150.271 22.5291C155.081 22.5291 157.865 25.0605 157.865 29.1107C157.865 33.1608 154.954 35.6922 150.271 35.6922V22.5291ZM137.994 29.1107C137.994 25.0605 140.779 22.5291 145.588 22.5291V35.6922C140.779 35.5656 137.994 33.1608 137.994 29.1107ZM162.675 29.1107C162.675 25.8199 161.536 23.162 159.258 21.2634C156.979 19.2384 153.942 18.2258 150.271 18.0993V12.5303H145.588V18.0993C141.918 18.2258 138.754 19.2384 136.602 21.2634C134.324 23.162 133.185 25.8199 133.185 29.1107C133.185 32.4014 134.324 34.9328 136.602 36.8313C138.88 38.7298 141.918 39.8689 145.588 39.9955V45.5645H150.271V39.9955C154.068 39.8689 157.106 38.8564 159.258 36.9579C161.536 34.9328 162.675 32.2748 162.675 29.1107Z" fill="black"/>
<path d="M113.061 39.4882L124.831 26.4517V39.4882H129.641V18.6045H126.477L114.833 31.7675V18.6045H109.896V39.4882H113.061Z" fill="black"/>
<path d="M176.217 39.4886V25.9458L184.191 36.451H185.077L193.051 25.9458V39.4886H196.468V18.9846H194.569L184.824 32.0211L174.698 18.9846H172.8V39.4886H176.217ZM200.138 29.2366C200.138 32.2742 201.151 34.8056 203.176 36.8307C205.201 38.8558 207.733 39.9949 210.897 39.9949C214.061 39.9949 216.592 38.9823 218.617 36.8307C220.642 34.8056 221.655 32.1477 221.655 29.2366C221.655 26.199 220.642 23.6676 218.617 21.6425C216.592 19.6175 214.061 18.4783 210.897 18.4783C207.859 18.4783 205.201 19.4909 203.176 21.6425C201.151 23.6676 200.138 26.199 200.138 29.2366ZM218.111 29.2366C218.111 31.3883 217.478 33.1602 216.086 34.679C214.694 36.1978 212.922 36.9572 210.897 36.9572C208.872 36.9572 207.226 36.1978 205.707 34.679C204.315 33.1602 203.556 31.3883 203.556 29.2366C203.556 27.2115 204.315 25.4396 205.707 23.9208C207.1 22.4019 208.872 21.6425 210.897 21.6425C212.922 21.6425 214.694 22.4019 216.086 23.9208C217.478 25.313 218.111 27.085 218.111 29.2366ZM235.957 19.3643C232.54 19.3643 229.122 21.0097 227.604 23.9208C227.983 20.63 229.376 18.2252 230.894 17.0861C231.654 16.4533 232.666 15.947 233.805 15.4407C234.945 14.9344 236.084 14.5547 237.096 14.4282C238.235 14.175 239.374 13.9219 240.893 13.4156C242.286 13.0359 243.678 12.5297 244.69 12.0234V8.47949C243.551 8.98576 242.032 9.49203 240.26 9.99831L235.577 11.264C234.312 11.6437 232.919 12.15 231.401 12.9094C228.49 14.4282 226.718 16.2001 225.325 19.8706C224.693 21.7691 224.439 23.9208 224.439 26.4521C224.439 32.7805 227.604 39.8683 235.577 39.8683C238.615 39.8683 241.02 38.8558 243.045 36.8307C245.07 34.8056 246.083 32.4008 246.083 29.4897C246.083 26.3255 245.07 23.7942 243.045 21.8957C240.893 20.2503 238.488 19.3643 235.957 19.3643ZM235.577 36.8307C233.426 36.8307 231.78 36.0713 230.515 34.679C229.249 33.1602 228.49 31.5148 228.49 29.4897C228.49 27.4647 229.122 25.8193 230.641 24.427C232.034 23.1614 233.679 22.5285 235.704 22.5285C237.603 22.5285 239.248 23.1614 240.514 24.5536C241.906 25.9458 242.539 27.5912 242.539 29.4897C242.539 31.5148 241.906 33.1602 240.514 34.679C239.248 36.0713 237.476 36.8307 235.577 36.8307ZM251.905 39.4886L265.068 24.3005V39.4886H268.358V18.9846H266.333L253.17 34.1728V18.9846H249.88V39.4886H251.905Z" fill="black"/>
<path fill-rule="evenodd" clip-rule="evenodd" d="M26.8676 59.8668C22.8174 59.4871 19.0204 58.3479 15.4765 56.4494C8.76835 52.7789 3.57906 46.5771 1.17426 38.7299C-1.10397 30.8826 0.0351453 22.7823 3.70562 16.2007C8.51522 7.34096 17.7547 1.26568 27.627 0H27.8802L30.4115 6.32841C30.2849 6.32841 30.1584 6.32841 30.1584 6.32841C21.8049 6.83468 13.4514 11.7708 9.40119 19.2384C6.49013 24.4277 5.73072 30.7561 7.50267 36.8313C9.27463 43.0332 13.4514 47.8428 18.6407 50.6273C21.4252 52.1461 24.4628 53.0321 27.627 53.4118C34.5883 54.0446 41.0432 51.7664 46.106 47.7162C46.3591 47.4631 46.6122 47.3365 46.8654 47.0834L49.3967 53.4118C43.1949 58.0948 35.2211 60.6262 26.8676 59.8668ZM33.7023 14.8085H25.7285L15.2233 40.755H22.058L29.7787 20.6306L37.4993 40.755H44.334L33.7023 14.8085Z" fill="#37A134"/>
</svg>
